<svg width="88" height="31" viewBox="0 0 88 31" fill="none" xmlns="http://www.w3.org/2000/svg">
<g clip-path="url(#clip0_110_11279)">
<path d="M24.9264 25.1133C25.4116 25.1133 25.8132 25.2776 26.1353 25.6021C26.4653 25.9267 26.6244 26.3314 26.6244 26.8123C26.6244 27.2931 26.4653 27.6898 26.1353 28.0224C25.8132 28.3469 25.4116 28.5112 24.9264 28.5112H23.8806V30.2823H23.0376V25.1173H24.9264V25.1133ZM24.9264 27.7098C25.4235 27.7098 25.7814 27.3332 25.7814 26.8082C25.7814 26.2833 25.4235 25.9067 24.9264 25.9067H23.8806V27.7058H24.9264V27.7098Z" fill="#103559"/>
<path d="M27.8932 28.8029C28.0151 29.3205 28.4901 29.6052 29.1333 29.6052C29.5747 29.6052 29.9068 29.461 30.1338 29.1837L30.8233 29.5386C30.4449 30.034 29.8774 30.2817 29.1291 30.2817C28.5027 30.2817 27.9899 30.1116 27.6031 29.7789C27.2163 29.4388 27.0229 29.01 27.0229 28.4924C27.0229 27.9748 27.2163 27.5608 27.5947 27.2207C27.973 26.8732 28.4691 26.7031 29.0661 26.7031C29.6294 26.7031 30.096 26.8806 30.4575 27.2281C30.8233 27.5756 31.0083 28.0044 31.0083 28.4998C31.0083 28.5737 30.9999 28.6773 30.9788 28.8066H27.8974L27.8932 28.8029ZM30.1633 28.2041C30.0456 27.6532 29.6042 27.3649 29.0576 27.3649C28.4397 27.3649 28.0067 27.6865 27.889 28.2041H30.1633Z" fill="#103559"/>
<path d="M33.399 27.315H32.4842V29.0911C32.4842 29.5652 32.7932 29.5572 33.399 29.5291V30.2483C32.1793 30.397 31.6859 30.0635 31.6859 29.0951V27.319H31.0078V26.5475H31.6859V25.7478L32.4842 25.5107V26.5475H33.399V27.319V27.315Z" fill="#103559"/>
<path d="M35.3648 28.1723C35.9037 28.287 36.602 28.5054 36.5868 29.2344C36.5868 29.5601 36.454 29.8191 36.1959 30.0041C35.9379 30.1892 35.6153 30.2817 35.2244 30.2817C34.5336 30.2817 34.0213 29.9819 33.7974 29.486L34.4463 29.1197C34.564 29.4453 34.8221 29.6119 35.2206 29.6119C35.6191 29.6119 35.8164 29.4823 35.8164 29.2307C35.8164 29.0124 35.5242 28.8828 35.1522 28.794C34.6285 28.6645 33.9226 28.461 33.9378 27.743C33.9378 27.4285 34.0554 27.1768 34.3021 26.9881C34.545 26.7956 34.8562 26.7031 35.2168 26.7031C35.7974 26.7031 36.2642 26.9696 36.5109 27.4137L35.8733 27.7615C35.7557 27.5025 35.5318 27.373 35.2168 27.373C34.9321 27.373 34.7082 27.4951 34.7082 27.7356C34.7082 27.9614 35.0004 28.0761 35.3648 28.1797V28.1723Z" fill="#103559"/>
<path d="M41.3692 25.8734C40.7413 25.8222 40.436 26.0621 40.436 26.5892V26.66H41.3692V27.4151H40.436V30.2823H39.5801V27.4151H38.978V26.66H39.5801V26.5892C39.5801 25.598 40.1994 25.0553 41.3692 25.1182V25.8734Z" fill="#103559"/>
<path d="M42.3508 29.7641C41.9654 29.4166 41.7686 28.9952 41.7686 28.4924C41.7686 27.9896 41.9654 27.5682 42.3508 27.2207C42.7362 26.8732 43.2118 26.7031 43.7612 26.7031C44.3106 26.7031 44.7862 26.8732 45.1717 27.2207C45.5571 27.5682 45.7539 27.9896 45.7539 28.4924C45.7539 28.9952 45.5571 29.4166 45.1717 29.7641C44.7862 30.1116 44.3188 30.2817 43.7612 30.2817C43.2036 30.2817 42.7362 30.1116 42.3508 29.7641ZM43.7612 29.5682C44.0933 29.5682 44.3721 29.4647 44.5976 29.2614C44.8231 29.058 44.9379 28.7992 44.9379 28.4924C44.9379 28.1856 44.8231 27.9268 44.5976 27.7235C44.3721 27.5201 44.0933 27.4166 43.7612 27.4166C43.4291 27.4166 43.1503 27.5201 42.9248 27.7235C42.6993 27.9268 42.5845 28.1856 42.5845 28.4924C42.5845 28.7992 42.6993 29.058 42.9248 29.2614C43.1503 29.4647 43.4291 29.5682 43.7612 29.5682Z" fill="#103559"/>
<path d="M46.9733 27.3562C47.1796 26.9208 47.5757 26.7031 48.145 26.7031V27.5242C47.8356 27.5013 47.5592 27.5739 47.324 27.7343C47.0889 27.8909 46.9733 28.1506 46.9733 28.5096V30.2817H46.1523V26.7642H46.9733V27.3562Z" fill="#103559"/>
<path d="M54.1229 28.8066C54.1229 29.2277 53.9816 29.5806 53.6951 29.8613C53.4086 30.142 53.061 30.2823 52.6485 30.2823H50.5361V25.1133H52.4919C52.8929 25.1133 53.2367 25.2536 53.5118 25.5263C53.7944 25.799 53.9319 26.1399 53.9319 26.5449C53.9319 26.994 53.7639 27.3429 53.4315 27.5996C53.8593 27.8362 54.1191 28.2652 54.1191 28.8026L54.1229 28.8066ZM51.3459 25.9113V27.2707H52.4919C52.8509 27.2707 53.1259 26.974 53.1259 26.593C53.1259 26.2121 52.8509 25.9153 52.4919 25.9153H51.3459V25.9113ZM52.6485 29.4843C53.0228 29.4843 53.3169 29.1675 53.3169 28.7625C53.3169 28.3575 53.0228 28.0407 52.6485 28.0407H51.3459V29.4883H52.6485V29.4843Z" fill="#103559"/>
<path d="M55.7897 28.8029C55.9115 29.3205 56.386 29.6052 57.0285 29.6052C57.4695 29.6052 57.8013 29.461 58.028 29.1837L58.7167 29.5386C58.3388 30.034 57.7719 30.2817 57.0244 30.2817C56.3986 30.2817 55.8863 30.1116 55.4999 29.7789C55.1136 29.4388 54.9204 29.01 54.9204 28.4924C54.9204 27.9748 55.1136 27.5608 55.4915 27.2207C55.8695 26.8732 56.365 26.7031 56.9614 26.7031C57.5241 26.7031 57.9902 26.8806 58.3556 27.2281C58.7209 27.5756 58.9057 28.0044 58.9057 28.4998C58.9057 28.5737 58.8973 28.6773 58.8763 28.8066H55.7981L55.7897 28.8029ZM58.0574 28.2041C57.9398 27.6532 57.4989 27.3649 56.953 27.3649C56.3356 27.3649 55.9031 27.6865 55.7855 28.2041H58.0616H58.0574Z" fill="#103559"/>
<path d="M60.4727 28.1723C61.0116 28.287 61.7099 28.5054 61.6947 29.2344C61.6947 29.5601 61.5619 29.8191 61.3038 30.0041C61.0458 30.1892 60.7232 30.2817 60.3323 30.2817C59.6415 30.2817 59.1292 29.9819 58.9053 29.486L59.5543 29.1197C59.6719 29.4453 59.93 29.6119 60.3285 29.6119C60.727 29.6119 60.9243 29.4823 60.9243 29.2307C60.9243 29.0124 60.6321 28.8828 60.2602 28.794C59.7364 28.6645 59.0305 28.461 59.0457 27.743C59.0457 27.4285 59.1633 27.1768 59.41 26.9881C59.6529 26.7956 59.9641 26.7031 60.3247 26.7031C60.9053 26.7031 61.3722 26.9696 61.6188 27.4137L60.9813 27.7615C60.8636 27.5025 60.6397 27.373 60.3247 27.373C60.04 27.373 59.8161 27.4951 59.8161 27.7356C59.8161 27.9614 60.1084 28.0761 60.4727 28.1797V28.1723Z" fill="#103559"/>
<path d="M64.4844 27.315H63.5712V29.0911C63.5712 29.5652 63.8796 29.5572 64.4844 29.5291V30.2483C63.2668 30.397 62.7742 30.0635 62.7742 29.0951V27.319H62.0933V26.5475H62.7742V25.7478L63.5712 25.5107V26.5475H64.4844V27.319V27.315Z" fill="#103559"/>
<path d="M19.1996 2.88997C19.0953 1.86157 18.6821 1.6543 17.8798 1.6543H14.462C13.7118 1.6543 13.5313 1.78185 13.2465 2.60696L10.6831 10.9418L8.11973 2.60696C7.83492 1.78185 7.6544 1.6543 6.90424 1.6543H3.48241C2.68011 1.6543 2.26692 1.86157 2.16262 2.88997L0.34941 19.2526C0.273191 19.8426 0.325341 20.0778 0.842827 20.1535L4.75406 20.7195C5.34777 20.7952 5.48015 20.6677 5.55637 20.2292L6.41082 12.5641L8.2481 19.7429C8.42862 20.3329 8.66129 20.568 9.25901 20.568H12.1072C12.7009 20.568 12.9376 20.3368 13.1181 19.7429L14.9313 12.5641L15.8098 20.2292C15.886 20.6677 16.0184 20.7952 16.6121 20.7195L20.5234 20.1535C21.0409 20.0778 21.093 19.8466 21.0168 19.2526L19.1996 2.88997Z" fill="#103559"/>
<path d="M28.6173 6.02734C24.2279 6.02734 21.8423 9.03593 21.8423 13.1845C21.8423 17.333 24.2279 20.3416 28.6173 20.3416C33.0068 20.3416 35.3923 17.333 35.3923 13.1845C35.3923 9.03593 33.0068 6.02734 28.6173 6.02734ZM28.6173 15.6603C27.5637 15.6603 26.9991 14.6731 26.9991 13.1806C26.9991 11.688 27.5637 10.7008 28.6173 10.7008C29.6709 10.7008 30.2355 11.688 30.2355 13.1806C30.2355 14.6731 29.6709 15.6603 28.6173 15.6603Z" fill="#103559"/>
<path d="M45.2359 6.03529C44.3361 6.03529 37.6035 6.21407 37.1655 6.82987C36.9863 7.03646 36.9863 7.31853 36.9863 7.80322L37.1934 18.9829C37.2173 20.0079 37.4522 20.3416 38.348 20.3416H41.4854C42.3852 20.3416 42.64 20.0079 42.64 18.9829V11.2636C43.0262 11.1365 43.1536 11.0848 43.5916 11.057C44.1808 11.0332 44.4635 11.212 44.6467 11.6966C44.7741 12.2091 44.802 12.9799 44.802 14.0287L44.7781 18.9789C44.7781 20.0039 45.0607 20.3377 45.9606 20.3377H49.1736C50.0734 20.3377 50.3043 20.0039 50.3282 18.9789L50.5353 12.1575C50.5592 10.4889 50.2008 8.95138 49.3528 7.82309C48.453 6.69479 47.1152 6.02734 45.2399 6.02734L45.2359 6.03529Z" fill="#103559"/>
<path d="M57.2946 7.61816H54.065C53.1814 7.61816 52.9272 7.9229 52.9272 8.94793V18.9885C52.9272 20.0095 53.1814 20.342 54.065 20.342H57.3454C58.2291 20.342 58.5067 20.0095 58.5067 18.9885L58.4559 8.94793C58.4559 7.95061 58.1783 7.61816 57.2946 7.61816Z" fill="#103559"/>
<path d="M55.9162 0.859375C54.0034 0.859375 52.9272 2.03724 52.9272 3.64271C52.9272 5.24818 54.0034 6.42604 55.9162 6.42604C57.829 6.42604 58.9052 5.24818 58.9052 3.64271C58.9052 2.03724 57.829 0.859375 55.9162 0.859375Z" fill="#103559"/>
<path d="M69.7848 6.44458H67.7982V2.9878C67.7982 1.96386 67.5352 1.6543 66.6249 1.6543H63.5418C62.6274 1.6543 62.3401 1.98767 62.3401 2.9878V6.44458H60.7743C59.9125 6.44458 59.7021 6.59936 59.7021 7.39311V10.1871C59.7021 10.9809 59.9125 11.1356 60.7743 11.1356H62.3401V16.0013C62.3401 19.2795 64.088 20.74 67.3815 20.74C68.3485 20.74 69.3154 20.6646 70.2298 20.482C70.6223 20.4066 70.7275 20.3035 70.7275 19.9185L70.598 15.9974C70.598 15.664 70.416 15.537 70.0761 15.6124C69.7888 15.6878 69.5016 15.7394 69.1091 15.7394C68.3525 15.7394 67.8022 15.4814 67.8022 14.3821V11.1277H69.7888C70.6506 11.1277 70.861 10.9729 70.861 10.1792V7.38517C70.861 6.59142 70.6506 6.43664 69.7888 6.43664L69.7848 6.44458Z" fill="#103559"/>
<path d="M78.4332 6.02734C74.0438 6.02734 71.6582 9.03593 71.6582 13.1845C71.6582 17.333 74.0438 20.3416 78.4332 20.3416C82.8227 20.3416 85.2083 17.333 85.2083 13.1845C85.2083 9.03593 82.8227 6.02734 78.4332 6.02734ZM78.4332 15.6603C77.3796 15.6603 76.815 14.6731 76.815 13.1806C76.815 11.688 77.3796 10.7008 78.4332 10.7008C79.4869 10.7008 80.0514 11.688 80.0514 13.1806C80.0514 14.6731 79.4869 15.6603 78.4332 15.6603Z" fill="#103559"/>
<path d="M86.4687 6.58875C86.0082 6.25653 85.2539 6.44848 84.7775 7.01695C84.3012 7.58542 84.2892 8.31631 84.7458 8.64853C85.2063 8.98075 85.9605 8.7888 86.4369 8.22033C86.9133 7.65186 86.9252 6.92097 86.4687 6.58875Z" fill="#103559"/>
<path d="M75.6307 5.62274C76.172 5.53961 76.5267 4.85483 76.4221 4.09089C76.3176 3.32694 75.7987 2.77279 75.2574 2.85591C74.7161 2.93903 74.3615 3.62381 74.466 4.38776C74.5705 5.1517 75.0894 5.70586 75.6307 5.62274Z" fill="#103559"/>
<path d="M82.6451 6.32464C83.3939 6.70267 84.5276 5.9877 85.173 4.72622C85.8185 3.46475 85.7357 2.13342 84.9827 1.75538C84.2338 1.37735 83.1002 2.09233 82.4548 3.3538C81.8093 4.61528 81.8921 5.94661 82.6451 6.32464Z" fill="#103559"/>
<path d="M78.7677 5.22592C79.5224 5.32197 80.2547 4.33344 80.4004 3.02075C80.5462 1.70404 80.053 0.563436 79.2945 0.467385C78.5398 0.371334 77.8075 1.35986 77.6617 2.67256C77.516 3.98926 78.0092 5.12987 78.7677 5.22592Z" fill="#103559"/>
</g>
<defs>
<clipPath id="clip0_110_11279">
<rect width="86.8798" height="30.2191" fill="white" transform="translate(0.321777 0.459961)"/>
</clipPath>
</defs>
</svg>
